<?xml version="1.0" encoding="utf-8"?>
<!-- Generator: Adobe Illustrator 26.5.0, SVG Export Plug-In . SVG Version: 6.00 Build 0)  -->
<svg version="1.1" id="Layer_1" xmlns="http://www.w3.org/2000/svg" xmlns:xlink="http://www.w3.org/1999/xlink" x="0px" y="0px"
	 viewBox="0 0 41 41" style="enable-background:new 0 0 41 41;" xml:space="preserve">
<g>
	<path d="M28.83,20.9c-0.6,0-1.17,0-1.74,0c-1.61,0.01-3.21,0.01-4.82,0.02c-0.28,0-0.56,0-0.83,0c-0.3-0.01-0.49-0.18-0.51-0.45
		c-0.02-0.29,0.15-0.49,0.46-0.53c0.09-0.01,0.18-0.01,0.27-0.01c3.97,0,7.95-0.01,11.92-0.01c2.34,0,4.68-0.01,7.02-0.01
		c0.38,0,0.4,0.02,0.4,0.39c-0.02,5.52-1.9,10.32-5.71,14.31c-3.13,3.29-6.97,5.31-11.45,6.03c-5.28,0.85-10.2-0.17-14.65-3.14
		c-4.7-3.14-7.67-7.51-8.76-13.07c-1.09-5.53-0.08-10.72,3.07-15.4c3.22-4.78,7.71-7.77,13.4-8.75c6.7-1.15,12.6,0.64,17.64,5.21
		c0.91,0.83,1.72,1.76,2.45,2.75c0.2,0.28,0.2,0.31-0.08,0.51c-0.56,0.4-0.47,0.39-0.88-0.13c-3.22-4.12-7.4-6.63-12.56-7.47
		c-1.89-0.31-3.78-0.3-5.68-0.04c-0.24,0.03-0.28,0.16-0.33,0.34c-1.73,5.9-3.45,11.79-5.18,17.69c-1.52,5.18-3.03,10.37-4.56,15.55
		c-0.09,0.31-0.03,0.48,0.21,0.68c2.86,2.38,6.12,3.86,9.81,4.39c1.69,0.24,3.38,0.26,5.07,0.07c0.21-0.02,0.28-0.12,0.34-0.3
		c1.6-5.21,3.2-10.43,4.8-15.64c0.28-0.9,0.55-1.8,0.83-2.7C28.78,21.1,28.8,21.01,28.83,20.9z M16.45,1.36
		C9.38,2.81,2.93,8.56,1.35,16.74c-0.76,3.93-0.34,7.75,1.23,11.43c0.99,2.31,2.39,4.35,4.21,6.15
		C10.02,23.32,13.23,12.36,16.45,1.36z M24.12,39.62c4.68-0.96,8.52-3.22,11.5-6.88c2.81-3.44,4.25-7.4,4.39-11.85
		c-0.28,0-0.51,0-0.74,0c-3.02,0-6.05,0.01-9.07,0c-0.26,0-0.36,0.08-0.44,0.33c-1.7,5.55-3.4,11.1-5.11,16.64
		C24.48,38.42,24.32,38.99,24.12,39.62z"/>
</g>
</svg>
